<mxfile host="app.diagrams.net" agent="Mozilla/5.0 (Windows NT 10.0; Win64; x64) AppleWebKit/537.36 (KHTML, like Gecko) Chrome/131.0.0.0 Safari/537.36" version="26.0.4">
  <diagram name="第 1 页" id="hWdZWYA4qxCiU3Olk1lt">
    <mxGraphModel dx="1502" dy="556" grid="0" gridSize="10" guides="1" tooltips="1" connect="1" arrows="1" fold="1" page="0" pageScale="1" pageWidth="827" pageHeight="1169" math="0" shadow="0">
      <root>
        <mxCell id="0" />
        <mxCell id="1" parent="0" />
        <mxCell id="h-B3iDW2PU-JzLFnO007-1" value="" style="shape=cylinder3;whiteSpace=wrap;html=1;boundedLbl=1;backgroundOutline=1;size=15;" vertex="1" parent="1">
          <mxGeometry x="84" y="262" width="171" height="99" as="geometry" />
        </mxCell>
        <mxCell id="h-B3iDW2PU-JzLFnO007-2" value="订单表(order)" style="rounded=0;whiteSpace=wrap;html=1;" vertex="1" parent="1">
          <mxGeometry x="109.5" y="311" width="120" height="26" as="geometry" />
        </mxCell>
        <mxCell id="h-B3iDW2PU-JzLFnO007-3" value="" style="shape=cylinder3;whiteSpace=wrap;html=1;boundedLbl=1;backgroundOutline=1;size=15;" vertex="1" parent="1">
          <mxGeometry x="423.5" y="216" width="139" height="87" as="geometry" />
        </mxCell>
        <mxCell id="h-B3iDW2PU-JzLFnO007-4" value="订单表(order)" style="rounded=0;whiteSpace=wrap;html=1;" vertex="1" parent="1">
          <mxGeometry x="433" y="259" width="120" height="26" as="geometry" />
        </mxCell>
        <mxCell id="h-B3iDW2PU-JzLFnO007-5" value="" style="shape=cylinder3;whiteSpace=wrap;html=1;boundedLbl=1;backgroundOutline=1;size=15;" vertex="1" parent="1">
          <mxGeometry x="423.5" y="318" width="139" height="87" as="geometry" />
        </mxCell>
        <mxCell id="h-B3iDW2PU-JzLFnO007-6" value="订单表(order)" style="rounded=0;whiteSpace=wrap;html=1;" vertex="1" parent="1">
          <mxGeometry x="433" y="361" width="120" height="26" as="geometry" />
        </mxCell>
        <mxCell id="h-B3iDW2PU-JzLFnO007-7" value="" style="shape=cylinder3;whiteSpace=wrap;html=1;boundedLbl=1;backgroundOutline=1;size=15;" vertex="1" parent="1">
          <mxGeometry x="679" y="248.75" width="171" height="109.5" as="geometry" />
        </mxCell>
        <mxCell id="h-B3iDW2PU-JzLFnO007-8" value="日志表(log)" style="rounded=0;whiteSpace=wrap;html=1;" vertex="1" parent="1">
          <mxGeometry x="704.5" y="302.75" width="120" height="26" as="geometry" />
        </mxCell>
        <mxCell id="h-B3iDW2PU-JzLFnO007-9" value="" style="line;strokeWidth=1;html=1;" vertex="1" parent="1">
          <mxGeometry x="255" y="309" width="78" height="10" as="geometry" />
        </mxCell>
        <mxCell id="h-B3iDW2PU-JzLFnO007-10" style="rounded=0;orthogonalLoop=1;jettySize=auto;html=1;entryX=0;entryY=0.5;entryDx=0;entryDy=0;entryPerimeter=0;exitX=1;exitY=0.5;exitDx=0;exitDy=0;exitPerimeter=0;" edge="1" parent="1" source="h-B3iDW2PU-JzLFnO007-9" target="h-B3iDW2PU-JzLFnO007-3">
          <mxGeometry relative="1" as="geometry">
            <mxPoint x="366" y="496" as="sourcePoint" />
          </mxGeometry>
        </mxCell>
        <mxCell id="h-B3iDW2PU-JzLFnO007-11" style="rounded=0;orthogonalLoop=1;jettySize=auto;html=1;entryX=0;entryY=0.5;entryDx=0;entryDy=0;entryPerimeter=0;exitX=1;exitY=0.5;exitDx=0;exitDy=0;exitPerimeter=0;" edge="1" parent="1" source="h-B3iDW2PU-JzLFnO007-9" target="h-B3iDW2PU-JzLFnO007-5">
          <mxGeometry relative="1" as="geometry" />
        </mxCell>
        <mxCell id="h-B3iDW2PU-JzLFnO007-12" value="&lt;font style=&quot;font-size: 14px;&quot;&gt;水平分库&lt;/font&gt;" style="text;html=1;align=center;verticalAlign=middle;resizable=0;points=[];autosize=1;strokeColor=none;fillColor=none;" vertex="1" parent="1">
          <mxGeometry x="257" y="282" width="74" height="29" as="geometry" />
        </mxCell>
        <mxCell id="h-B3iDW2PU-JzLFnO007-13" value="" style="shape=cylinder3;whiteSpace=wrap;html=1;boundedLbl=1;backgroundOutline=1;size=15;" vertex="1" parent="1">
          <mxGeometry x="1036" y="232.88" width="171" height="141.25" as="geometry" />
        </mxCell>
        <mxCell id="h-B3iDW2PU-JzLFnO007-14" value="日志表(log01)" style="rounded=0;whiteSpace=wrap;html=1;" vertex="1" parent="1">
          <mxGeometry x="1061.5" y="273.13" width="120" height="26" as="geometry" />
        </mxCell>
        <mxCell id="h-B3iDW2PU-JzLFnO007-15" value="日志表(log02)" style="rounded=0;whiteSpace=wrap;html=1;" vertex="1" parent="1">
          <mxGeometry x="1061.5" y="299.13" width="120" height="26" as="geometry" />
        </mxCell>
        <mxCell id="h-B3iDW2PU-JzLFnO007-16" value="日志表(log03)" style="rounded=0;whiteSpace=wrap;html=1;" vertex="1" parent="1">
          <mxGeometry x="1061.5" y="325.13" width="120" height="26" as="geometry" />
        </mxCell>
        <mxCell id="h-B3iDW2PU-JzLFnO007-17" style="edgeStyle=orthogonalEdgeStyle;rounded=0;orthogonalLoop=1;jettySize=auto;html=1;entryX=0;entryY=0.5;entryDx=0;entryDy=0;entryPerimeter=0;" edge="1" parent="1" source="h-B3iDW2PU-JzLFnO007-7" target="h-B3iDW2PU-JzLFnO007-13">
          <mxGeometry relative="1" as="geometry" />
        </mxCell>
        <mxCell id="h-B3iDW2PU-JzLFnO007-18" value="&lt;font style=&quot;font-size: 14px;&quot;&gt;水平分表&lt;/font&gt;" style="text;html=1;align=center;verticalAlign=middle;resizable=0;points=[];autosize=1;strokeColor=none;fillColor=none;" vertex="1" parent="1">
          <mxGeometry x="902" y="274" width="74" height="29" as="geometry" />
        </mxCell>
      </root>
    </mxGraphModel>
  </diagram>
</mxfile>
